<svg width="17" height="16" viewBox="0 0 17 16" fill="none" xmlns="http://www.w3.org/2000/svg">
<path d="M4.19332 13.0134C3.78666 13.0134 3.40666 12.8734 3.13332 12.6134C2.78666 12.2868 2.61999 11.7934 2.67999 11.2601L2.92666 9.10011C2.97332 8.69345 3.21999 8.15345 3.50666 7.86011L8.97999 2.06678C10.3467 0.620114 11.7733 0.580114 13.22 1.94678C14.6667 3.31345 14.7067 4.74011 13.34 6.18678L7.86666 11.9801C7.58666 12.2801 7.06666 12.5601 6.65999 12.6268L4.51332 12.9934C4.39999 13.0001 4.29999 13.0134 4.19332 13.0134ZM11.12 1.94011C10.6067 1.94011 10.16 2.26011 9.70666 2.74011L4.23332 8.54011C4.09999 8.68011 3.94666 9.01345 3.91999 9.20678L3.67332 11.3668C3.64666 11.5868 3.69999 11.7668 3.81999 11.8801C3.93999 11.9934 4.11999 12.0334 4.33999 12.0001L6.48666 11.6334C6.67999 11.6001 6.99999 11.4268 7.13332 11.2868L12.6067 5.49345C13.4333 4.61345 13.7333 3.80011 12.5267 2.66678C11.9933 2.15345 11.5333 1.94011 11.12 1.94011Z" fill="white"/>
<path d="M12.06 7.29998C12.0466 7.29998 12.0266 7.29998 12.0133 7.29998C9.9333 7.09331 8.25996 5.51331 7.93996 3.44665C7.89996 3.17331 8.08663 2.91998 8.35996 2.87331C8.6333 2.83331 8.88663 3.01998 8.9333 3.29331C9.18663 4.90665 10.4933 6.14665 12.12 6.30665C12.3933 6.33331 12.5933 6.57998 12.5666 6.85331C12.5333 7.10665 12.3133 7.29998 12.06 7.29998Z" fill="white"/>
<path d="M14.5 15.1667H2.5C2.22667 15.1667 2 14.9401 2 14.6667C2 14.3934 2.22667 14.1667 2.5 14.1667H14.5C14.7733 14.1667 15 14.3934 15 14.6667C15 14.9401 14.7733 15.1667 14.5 15.1667Z" fill="white"/>
</svg>
